<svg version="1.1" height="200px" width="200px" viewbox="100 100 100 100" xmlns="http://www.w3.org/2000/svg" >
<g transform="scale(1.9) translate(-47 -36)">
<g> 
    <polyline points="51.5,64 51.5,82 75.5,95 75.5,121.5 100,135 124.5,121.5 124.5,95 148.5,82 148.5,55.5 124.5,42 100,55.5 75.5,42 51.5,55.5 51.5,64.5" stroke="white" stroke-width="6" fill="transparent" />
    <polyline points="100,135 100,108 75.5,95 75.5,68.5 51.5,55.5" stroke="white" stroke-width="6" fill="transparent" />
    <polyline points="100,108 124.5,95 124.5,68.5 148,55.5" stroke="white" stroke-width="6" fill="transparent" />
    <polyline points="100,83 100,56"  stroke="white" stroke-width="6" fill="transparent" />
    <polyline points="75.5,95.5  100,82 125,95.5" stroke="white" stroke-width="6" fill="transparent" />
    <polyline points="75.5,69 100,55.5 125,69" stroke="white" stroke-width="6" fill="transparent" />
</g>
<g>
    <polyline points="51.5,54.5 51.5,82 75.5,95 75.5,121.5 100,135 124.5,121.5 124.5,95 148.5,82 148.5,55.5 124.5,42 100,55.5 75.5,42 50.5,56" stroke="white" stroke-width="4" fill="transparent" />
    <polyline points="100,135 100,108 75.5,95 75.5,68.5 51.5,55.5" stroke="white" stroke-width="4" fill="transparent" />
    <polyline points="100,108 124.5,95 124.5,68.5 148,55.5" stroke="white" stroke-width="4" fill="transparent" />
    <polyline points="100,83 100,56"  stroke="white" stroke-width="4" fill="transparent" />
    <polyline points="75.5,95.5  100,82 125,95.5" stroke="white" stroke-width="4" fill="transparent" />
    <polyline points="75.5,69 100,55.5 125,69" stroke="white" stroke-width="4" fill="transparent" />
</g>
</g>
</svg>